<svg xmlns="http://www.w3.org/2000/svg" xmlns:svg="http://www.w3.org/2000/svg" id="Capa_1" width="93.038" height="93.038" x="0" style="enable-background:new 0 0 93.038 93.038" y="0" version="1.1" viewBox="0 0 93.038 93.038" xml:space="preserve"><metadata id="metadata41"/><defs id="defs39"><clipPath id="clipPath6529" clipPathUnits="userSpaceOnUse"><rect style="fill:#fff" id="rect6531" width="56.171" height="73.175" x="-2.927" y="8.713"/></clipPath><clipPath id="clipPath6533" clipPathUnits="userSpaceOnUse"><rect style="fill:#fff" id="rect6535" width="56.171" height="73.175" x="-2.927" y="8.713"/></clipPath><clipPath id="clipPath6537" clipPathUnits="userSpaceOnUse"><rect style="fill:#fff" id="rect6539" width="56.171" height="73.175" x="-2.927" y="8.713"/></clipPath><clipPath id="clipPath6541" clipPathUnits="userSpaceOnUse"><rect style="fill:#fff" id="rect6543" width="56.171" height="73.175" x="-2.927" y="8.713"/></clipPath><clipPath id="clipPath6545" clipPathUnits="userSpaceOnUse"><rect style="fill:#fff" id="rect6547" width="56.171" height="73.175" x="-2.927" y="8.713"/></clipPath><clipPath id="clipPath6549" clipPathUnits="userSpaceOnUse"><rect style="fill:#fff" id="rect6551" width="56.171" height="73.175" x="-2.927" y="8.713"/></clipPath><clipPath id="clipPath6553" clipPathUnits="userSpaceOnUse"><rect style="fill:#fff" id="rect6555" width="56.171" height="73.175" x="-2.927" y="8.713"/></clipPath><clipPath id="clipPath6557" clipPathUnits="userSpaceOnUse"><rect style="fill:#fff" id="rect6559" width="56.171" height="73.175" x="-2.927" y="8.713"/></clipPath><clipPath id="clipPath6561" clipPathUnits="userSpaceOnUse"><rect style="fill:#fff" id="rect6563" width="56.171" height="73.175" x="-2.927" y="8.713"/></clipPath><clipPath id="clipPath6565" clipPathUnits="userSpaceOnUse"><rect style="fill:#fff" id="rect6567" width="56.171" height="73.175" x="-2.927" y="8.713"/></clipPath><clipPath id="clipPath6569" clipPathUnits="userSpaceOnUse"><rect style="fill:#fff" id="rect6571" width="56.171" height="73.175" x="-2.927" y="8.713"/></clipPath><clipPath id="clipPath6573" clipPathUnits="userSpaceOnUse"><rect style="fill:#fff" id="rect6575" width="56.171" height="73.175" x="-2.927" y="8.713"/></clipPath><clipPath id="clipPath6577" clipPathUnits="userSpaceOnUse"><rect style="fill:#fff" id="rect6579" width="56.171" height="73.175" x="-2.927" y="8.713"/></clipPath><clipPath id="clipPath6581" clipPathUnits="userSpaceOnUse"><rect style="fill:#fff" id="rect6583" width="56.171" height="73.175" x="-2.927" y="8.713"/></clipPath><clipPath id="clipPath6585" clipPathUnits="userSpaceOnUse"><rect style="fill:#fff" id="rect6587" width="56.171" height="73.175" x="-2.927" y="8.713"/></clipPath><clipPath id="clipPath6589" clipPathUnits="userSpaceOnUse"><rect style="fill:#fff" id="rect6591" width="56.171" height="73.175" x="-2.927" y="8.713"/></clipPath><clipPath id="clipPath6593" clipPathUnits="userSpaceOnUse"><rect style="fill:#fff" id="rect6595" width="56.171" height="73.175" x="-2.927" y="8.713"/></clipPath></defs><g id="g3" clip-path="url(#clipPath6593)"><g id="g5287"><g id="g5229"><g id="g5172"><g id="g5116"><g id="g5061"><g id="g5007"><g id="g4954"><g id="g4902"><g id="g4851"><g id="g4801"><g id="g4752"><g id="g4704"><g id="g4657"><g id="g4611"><g id="g4566"><g id="g4522"><g id="g4479"><g id="g4437"><g id="g4396"><g id="g4356"><g id="g4317"><g id="g4279"><g id="g4242"><g id="g4206"><g id="g4171"><g id="g4137"><g id="g4104"><g id="g4072"><g id="g4041"><g id="g4011"><g id="g3982"><g id="g3954"><g id="g3927"><g id="g3901"><g id="g3876"><g id="g3852"><g id="g3829"><g id="g3807"><g id="g3786"><g id="g3766"><g id="g3747"><g id="g3729"><g id="g3712"><g id="g3696"><g id="g3681"><g id="g3667"><g id="g3654"><g id="g3642"><g id="g3631"><g id="g3621"><g id="g3612"><g id="g3604"><g id="g3597"><g id="g3591"><g id="g3586"><g id="g3582"><g id="g3579"><path id="path5" d="M46.547,75.521c0,1.639-0.947,3.128-2.429,3.823c-0.573,0.271-1.187,0.402-1.797,0.402c-0.966,0-1.923-0.332-2.696-0.973 l-23.098-19.14H4.225C1.892,59.635,0,57.742,0,55.409V38.576c0-2.334,1.892-4.226,4.225-4.226h12.303l23.098-19.14 c1.262-1.046,3.012-1.269,4.493-0.569c1.481,0.695,2.429,2.185,2.429,3.823L46.547,75.521L46.547,75.521z M62.784,68.919 c-0.103,0.007-0.202,0.011-0.304,0.011c-1.116,0-2.192-0.441-2.987-1.237l-0.565-0.567c-1.482-1.479-1.656-3.822-0.408-5.504 c3.164-4.266,4.834-9.323,4.834-14.628c0-5.706-1.896-11.058-5.484-15.478c-1.366-1.68-1.24-4.12,0.291-5.65l0.564-0.565 c0.844-0.844,1.975-1.304,3.199-1.231c1.192,0.06,2.305,0.621,3.061,1.545c4.977,6.09,7.606,13.484,7.606,21.38 c0,7.354-2.325,14.354-6.725,20.24C65.131,68.216,64.007,68.832,62.784,68.919z M80.252,81.976 c-0.764,0.903-1.869,1.445-3.052,1.495c-0.058,0.002-0.117,0.004-0.177,0.004c-1.119,0-2.193-0.442-2.988-1.237l-0.555-0.555 c-1.551-1.55-1.656-4.029-0.246-5.707c6.814-8.104,10.568-18.396,10.568-28.982c0-11.011-4.019-21.611-11.314-29.847 c-1.479-1.672-1.404-4.203,0.17-5.783l0.554-0.555c0.822-0.826,1.89-1.281,3.115-1.242c1.163,0.033,2.263,0.547,3.036,1.417 c8.818,9.928,13.675,22.718,13.675,36.01C93.04,59.783,88.499,72.207,80.252,81.976z"/></g></g></g></g></g></g></g></g></g></g></g></g></g></g></g></g></g></g></g></g></g></g></g></g></g></g></g></g></g></g></g></g></g></g></g></g></g></g></g></g></g></g></g></g></g></g></g></g></g></g></g></g></g></g></g></g></g></g><path style="fill:#fff" id="path3373" clip-path="url(#clipPath6529)"/><text style="font-style:normal;font-weight:400;font-size:47.72743225px;line-height:607.00001717%;font-family:sans-serif;letter-spacing:0;word-spacing:0;fill:#000;fill-opacity:1;stroke:none;stroke-width:1px;stroke-linecap:butt;stroke-linejoin:miter;stroke-opacity:1" id="text3445" x="48.094" y="69.6" transform="scale(1.1084169,0.90218762)" xml:space="preserve"><tspan id="tspan3447" x="48.094" y="69.6" style="font-style:normal;font-variant:normal;font-weight:700;font-stretch:normal;line-height:607.00001717%;font-family:sans-serif;-inkscape-font-specification:'sans-serif Bold';letter-spacing:.09016728px">X</tspan></text></svg>