<svg xmlns="http://www.w3.org/2000/svg" xmlns:xlink="http://www.w3.org/1999/xlink" id="Layer_1" width="27" height="23" x="0" y="0" enable-background="new 0 0 27 23" version="1.1" viewBox="0 0 27 23" xml:space="preserve"><g id="Flight_Symbol_5_"><linearGradient id="Red_Gradient_2_" x1="17.17" x2="17.17" y1="13.028" y2="28" gradientUnits="userSpaceOnUse"><stop offset="0" style="stop-color:#ec1c24"/><stop offset=".146" style="stop-color:#e81b23"/><stop offset=".297" style="stop-color:#db1a21"/><stop offset=".45" style="stop-color:#c7181d"/><stop offset=".605" style="stop-color:#aa1418"/><stop offset=".76" style="stop-color:#851011"/><stop offset=".81" style="stop-color:#770e0f"/></linearGradient><path id="Red_Gradient_1_" fill="url(#Red_Gradient_2_)" d="M13.046,20.873c1.32,2.171,3.429,2.128,3.99,2.128h6.784l-8.004-9.717 c-3.692,0.151-5.646,2.52-5.246,3.513L13.046,20.873z"/><linearGradient id="Beak_Shadow_1_" x1="10.352" x2="15.816" y1="14.273" y2="14.273" gradientUnits="userSpaceOnUse"><stop offset="0" style="stop-color:#69231d"/><stop offset=".232" style="stop-color:#882821"/><stop offset=".568" style="stop-color:#b02f26"/><stop offset=".836" style="stop-color:#c83329"/><stop offset="1" style="stop-color:#d1342a"/></linearGradient><path id="Beak_Shadow_3_" fill="url(#Beak_Shadow_1_)" d="M10.571,16.797c-0.01-0.016-0.219-0.507-0.219-1.099 c0-2.219,1.965-3.489,4.201-3.949l1.264,1.535C12.125,13.436,10.17,15.804,10.571,16.797z"/><linearGradient id="Beak_1_" x1="9.752" x2="15.841" y1="13.475" y2="9.816" gradientUnits="userSpaceOnUse"><stop offset=".1" style="stop-color:#eff2f3"/><stop offset=".329" style="stop-color:#dde3e5"/><stop offset=".789" style="stop-color:#adbbc2"/><stop offset="1" style="stop-color:#95a7b0"/></linearGradient><path id="Beak_3_" fill="url(#Beak_1_)" d="M13.658,9.585c-3.374,0-5.894,0.556-5.894,1.876c0,0.486,0.152,0.907,0.564,1.649 l2.243,3.687c-0.01-0.016-0.219-0.507-0.219-1.099c0-2.219,1.965-3.489,4.201-3.949c0.648-0.134,1.314-0.197,1.965-0.197 c0.549,0,1.062,0.028,1.457,0.171C17.741,10.875,17.125,9.585,13.658,9.585z"/><linearGradient id="Blue_Gradient_1_" x1="6.395" x2="6.395" y1="10.394" y2=".049" gradientUnits="userSpaceOnUse"><stop offset="0" style="stop-color:#1c2f72"/><stop offset=".046" style="stop-color:#1a397b"/><stop offset=".257" style="stop-color:#1163a3"/><stop offset=".463" style="stop-color:#0984c2"/><stop offset=".659" style="stop-color:#049bd8"/><stop offset=".843" style="stop-color:#01a9e5"/><stop offset="1" style="stop-color:#00aeea"/></linearGradient><path id="Blue_Gradient_2_" fill="url(#Blue_Gradient_1_)" d="M4.781,7.286c0.928,1.521,1.271,1.9,3.479,1.904 c1.622,0,4.221,0,4.221,0L6.664,1.842C5.379,0.254,4.64-0.037,3.461-0.061H0.309L4.781,7.286z"/></g></svg>